<?xml version="1.0" encoding="utf-8"?>
<!-- Generator: Adobe Illustrator 15.1.0, SVG Export Plug-In . SVG Version: 6.00 Build 0)  -->
<!DOCTYPE svg PUBLIC "-//W3C//DTD SVG 1.1//EN" "http://www.w3.org/Graphics/SVG/1.1/DTD/svg11.dtd">
<svg version="1.1" id="Layer_1" xmlns="http://www.w3.org/2000/svg" xmlns:xlink="http://www.w3.org/1999/xlink" x="0px" y="0px"
	 width="499.998px" height="487.61px" viewBox="0 0 499.998 487.61" enable-background="new 0 0 499.998 487.61"
	 xml:space="preserve">
<g id="change1">
	<path fill="#FFFFFF" d="M498.147,181.779c-4.334-12.562-15.443-21.767-28.815-23.767l-130.089-19.469L282.694,20.35
		C276.741,7.942,264,0,249.996,0c-13.991,0-26.732,7.942-32.686,20.35l-56.548,118.193L30.649,158.012
		c-13.36,2-24.47,11.205-28.78,23.767c-4.299,12.598-1.048,26.471,8.395,35.949l95.343,95.819L83.494,446.482
		c-2.25,13.384,3.513,26.815,14.813,34.65c6.204,4.287,13.503,6.478,20.802,6.478c6.001,0,12.015-1.477,17.468-4.417l113.418-61.479
		l113.442,61.479c5.454,2.94,11.467,4.417,17.457,4.417c7.299,0,14.586-2.19,20.814-6.478c11.3-7.835,17.027-21.267,14.801-34.65
		l-22.125-132.935l95.367-95.819C499.183,208.238,502.411,194.366,498.147,181.779z M368.571,288.839
		c-8.002,8.014-11.634,19.326-9.8,30.423l22.124,132.923l-113.442-61.442c-5.43-2.953-11.432-4.417-17.469-4.417
		c-6.001,0-12.015,1.477-17.456,4.417l-113.431,61.442l22.124-132.923c1.846-11.098-1.786-22.41-9.788-30.423L36.09,193.008
		l130.101-19.504c11.884-1.774,22.124-9.264,27.232-19.945l56.572-118.157l56.573,118.181c5.119,10.681,15.336,18.147,27.22,19.945
		l130.125,19.505L368.571,288.839z"/>
</g>
</svg>
