<?xml version="1.0" encoding="utf-8"?>
<!-- Generator: Adobe Illustrator 16.0.0, SVG Export Plug-In . SVG Version: 6.00 Build 0)  -->
<!DOCTYPE svg PUBLIC "-//W3C//DTD SVG 1.1//EN" "http://www.w3.org/Graphics/SVG/1.1/DTD/svg11.dtd">
<svg version="1.1" id="Layer_1" xmlns="http://www.w3.org/2000/svg" xmlns:xlink="http://www.w3.org/1999/xlink" x="0px" y="0px"
	 width="283.465px" height="283.465px" viewBox="0 0 283.465 283.465" enable-background="new 0 0 283.465 283.465"
	 xml:space="preserve">
<g id="change1">
	<path fill="#E05A47" d="M141.73,0C63.456,0,0,63.456,0,141.734c0,78.275,63.456,141.731,141.73,141.731
		c78.278,0,141.734-63.456,141.734-141.73C283.465,63.456,220.009,0,141.73,0z M219.219,158.373l-77.489,77.488l-77.485-77.488
		c-19.987-19.985-19.987-52.393,0-72.38c19.986-19.988,52.394-19.988,72.381,0l5.104,4.474l5.104-4.474
		c19.99-19.988,52.395-19.988,72.385,0C239.206,105.98,239.206,138.388,219.219,158.373z"/>
</g>
</svg>
